<mxfile host="Electron" agent="Mozilla/5.0 (Windows NT 10.0; Win64; x64) AppleWebKit/537.36 (KHTML, like Gecko) draw.io/24.7.17 Chrome/128.0.6613.36 Electron/32.0.1 Safari/537.36" version="24.7.17">
  <diagram name="PÃ¡gina-1" id="jCqKzTGIilE62Oha10rs">
    <mxGraphModel dx="2514" dy="993" grid="1" gridSize="10" guides="1" tooltips="1" connect="1" arrows="1" fold="1" page="1" pageScale="1" pageWidth="827" pageHeight="1169" math="0" shadow="0">
      <root>
        <mxCell id="0" />
        <mxCell id="1" parent="0" />
        <mxCell id="XYxXkfkzVl0odQ3r3NW9-1" value="pedido" style="whiteSpace=wrap;html=1;" parent="1" vertex="1">
          <mxGeometry x="390" y="228" width="120" height="60" as="geometry" />
        </mxCell>
        <mxCell id="XYxXkfkzVl0odQ3r3NW9-4" value="" style="endArrow=none;html=1;rounded=0;exitX=1.03;exitY=0.431;exitDx=0;exitDy=0;exitPerimeter=0;" parent="1" target="XYxXkfkzVl0odQ3r3NW9-7" edge="1">
          <mxGeometry width="50" height="50" relative="1" as="geometry">
            <mxPoint x="150.00000000000003" y="258" as="sourcePoint" />
            <mxPoint x="270" y="258" as="targetPoint" />
          </mxGeometry>
        </mxCell>
        <mxCell id="XYxXkfkzVl0odQ3r3NW9-150" value="&lt;font style=&quot;font-size: 18px;&quot;&gt;1&lt;/font&gt;" style="edgeLabel;html=1;align=center;verticalAlign=middle;resizable=0;points=[];" parent="XYxXkfkzVl0odQ3r3NW9-4" vertex="1" connectable="0">
          <mxGeometry x="-0.285" y="-1" relative="1" as="geometry">
            <mxPoint x="21" y="-1" as="offset" />
          </mxGeometry>
        </mxCell>
        <mxCell id="XYxXkfkzVl0odQ3r3NW9-7" value="realiza" style="rhombus;whiteSpace=wrap;html=1;" parent="1" vertex="1">
          <mxGeometry x="240" y="218" width="80" height="80" as="geometry" />
        </mxCell>
        <mxCell id="XYxXkfkzVl0odQ3r3NW9-14" value="" style="endArrow=none;html=1;rounded=0;" parent="1" source="XYxXkfkzVl0odQ3r3NW9-7" target="XYxXkfkzVl0odQ3r3NW9-1" edge="1">
          <mxGeometry width="50" height="50" relative="1" as="geometry">
            <mxPoint x="310" y="257.92" as="sourcePoint" />
            <mxPoint x="390" y="257.92" as="targetPoint" />
          </mxGeometry>
        </mxCell>
        <mxCell id="XYxXkfkzVl0odQ3r3NW9-153" value="&lt;font style=&quot;font-size: 18px;&quot;&gt;N&lt;/font&gt;" style="edgeLabel;html=1;align=center;verticalAlign=middle;resizable=0;points=[];" parent="XYxXkfkzVl0odQ3r3NW9-14" vertex="1" connectable="0">
          <mxGeometry x="-0.0498" relative="1" as="geometry">
            <mxPoint as="offset" />
          </mxGeometry>
        </mxCell>
        <mxCell id="XYxXkfkzVl0odQ3r3NW9-16" value="cliente" style="whiteSpace=wrap;html=1;" parent="1" vertex="1">
          <mxGeometry x="40" y="238" width="120" height="60" as="geometry" />
        </mxCell>
        <mxCell id="XYxXkfkzVl0odQ3r3NW9-17" value="" style="endArrow=none;html=1;rounded=0;exitX=1;exitY=0.5;exitDx=0;exitDy=0;entryX=0.015;entryY=0.502;entryDx=0;entryDy=0;entryPerimeter=0;" parent="1" source="XYxXkfkzVl0odQ3r3NW9-1" target="XYxXkfkzVl0odQ3r3NW9-18" edge="1">
          <mxGeometry width="50" height="50" relative="1" as="geometry">
            <mxPoint x="510" y="257.86" as="sourcePoint" />
            <mxPoint x="590" y="257.86" as="targetPoint" />
          </mxGeometry>
        </mxCell>
        <mxCell id="XYxXkfkzVl0odQ3r3NW9-154" value="&lt;font style=&quot;font-size: 18px;&quot;&gt;1&lt;/font&gt;" style="edgeLabel;html=1;align=center;verticalAlign=middle;resizable=0;points=[];" parent="XYxXkfkzVl0odQ3r3NW9-17" vertex="1" connectable="0">
          <mxGeometry x="0.0842" y="2" relative="1" as="geometry">
            <mxPoint as="offset" />
          </mxGeometry>
        </mxCell>
        <mxCell id="XYxXkfkzVl0odQ3r3NW9-18" value="asocia" style="rhombus;whiteSpace=wrap;html=1;" parent="1" vertex="1">
          <mxGeometry x="624.75" y="218" width="80" height="80" as="geometry" />
        </mxCell>
        <mxCell id="XYxXkfkzVl0odQ3r3NW9-20" value="" style="endArrow=none;html=1;rounded=0;entryX=0;entryY=0.5;entryDx=0;entryDy=0;exitX=1;exitY=0.5;exitDx=0;exitDy=0;" parent="1" source="XYxXkfkzVl0odQ3r3NW9-18" target="XYxXkfkzVl0odQ3r3NW9-21" edge="1">
          <mxGeometry width="50" height="50" relative="1" as="geometry">
            <mxPoint x="670" y="258" as="sourcePoint" />
            <mxPoint x="751" y="257.97" as="targetPoint" />
          </mxGeometry>
        </mxCell>
        <mxCell id="XYxXkfkzVl0odQ3r3NW9-156" value="&lt;font style=&quot;font-size: 18px;&quot;&gt;N&lt;/font&gt;" style="edgeLabel;html=1;align=center;verticalAlign=middle;resizable=0;points=[];" parent="XYxXkfkzVl0odQ3r3NW9-20" vertex="1" connectable="0">
          <mxGeometry x="-0.0402" relative="1" as="geometry">
            <mxPoint as="offset" />
          </mxGeometry>
        </mxCell>
        <mxCell id="XYxXkfkzVl0odQ3r3NW9-21" value="&lt;div align=&quot;center&quot;&gt;pago&lt;/div&gt;" style="whiteSpace=wrap;html=1;align=center;" parent="1" vertex="1">
          <mxGeometry x="810.5" y="228" width="120" height="60" as="geometry" />
        </mxCell>
        <mxCell id="XYxXkfkzVl0odQ3r3NW9-23" value="" style="endArrow=none;html=1;rounded=0;exitX=0.505;exitY=0.997;exitDx=0;exitDy=0;exitPerimeter=0;entryX=0.494;entryY=0.024;entryDx=0;entryDy=0;entryPerimeter=0;" parent="1" source="XYxXkfkzVl0odQ3r3NW9-1" target="XYxXkfkzVl0odQ3r3NW9-24" edge="1">
          <mxGeometry width="50" height="50" relative="1" as="geometry">
            <mxPoint x="452.32" y="288" as="sourcePoint" />
            <mxPoint x="450" y="368" as="targetPoint" />
          </mxGeometry>
        </mxCell>
        <mxCell id="XYxXkfkzVl0odQ3r3NW9-158" value="&lt;font style=&quot;font-size: 18px;&quot;&gt;1&lt;/font&gt;" style="edgeLabel;html=1;align=center;verticalAlign=middle;resizable=0;points=[];" parent="XYxXkfkzVl0odQ3r3NW9-23" vertex="1" connectable="0">
          <mxGeometry x="0.0071" relative="1" as="geometry">
            <mxPoint as="offset" />
          </mxGeometry>
        </mxCell>
        <mxCell id="XYxXkfkzVl0odQ3r3NW9-24" value="contiene" style="rhombus;whiteSpace=wrap;html=1;" parent="1" vertex="1">
          <mxGeometry x="410" y="368" width="80" height="80" as="geometry" />
        </mxCell>
        <mxCell id="XYxXkfkzVl0odQ3r3NW9-25" value="detallepedido" style="whiteSpace=wrap;html=1;" parent="1" vertex="1">
          <mxGeometry x="390" y="530" width="120" height="62" as="geometry" />
        </mxCell>
        <mxCell id="XYxXkfkzVl0odQ3r3NW9-26" value="" style="endArrow=none;html=1;rounded=0;exitX=0.5;exitY=1;exitDx=0;exitDy=0;entryX=0.497;entryY=0.001;entryDx=0;entryDy=0;entryPerimeter=0;" parent="1" source="XYxXkfkzVl0odQ3r3NW9-24" target="XYxXkfkzVl0odQ3r3NW9-25" edge="1">
          <mxGeometry width="50" height="50" relative="1" as="geometry">
            <mxPoint x="450.5" y="448" as="sourcePoint" />
            <mxPoint x="449.5" y="530" as="targetPoint" />
          </mxGeometry>
        </mxCell>
        <mxCell id="XYxXkfkzVl0odQ3r3NW9-159" value="&lt;font style=&quot;font-size: 18px;&quot;&gt;N&lt;/font&gt;" style="edgeLabel;html=1;align=center;verticalAlign=middle;resizable=0;points=[];" parent="XYxXkfkzVl0odQ3r3NW9-26" vertex="1" connectable="0">
          <mxGeometry x="0.0846" y="-1" relative="1" as="geometry">
            <mxPoint as="offset" />
          </mxGeometry>
        </mxCell>
        <mxCell id="XYxXkfkzVl0odQ3r3NW9-32" value="" style="endArrow=none;html=1;rounded=0;exitX=0.5;exitY=1;exitDx=0;exitDy=0;entryX=0.5;entryY=0;entryDx=0;entryDy=0;" parent="1" source="XYxXkfkzVl0odQ3r3NW9-25" target="XYxXkfkzVl0odQ3r3NW9-34" edge="1">
          <mxGeometry width="50" height="50" relative="1" as="geometry">
            <mxPoint x="449.76" y="592" as="sourcePoint" />
            <mxPoint x="449.76" y="674" as="targetPoint" />
          </mxGeometry>
        </mxCell>
        <mxCell id="XYxXkfkzVl0odQ3r3NW9-161" value="&lt;font style=&quot;font-size: 18px;&quot;&gt;N&lt;/font&gt;" style="edgeLabel;html=1;align=center;verticalAlign=middle;resizable=0;points=[];" parent="XYxXkfkzVl0odQ3r3NW9-32" vertex="1" connectable="0">
          <mxGeometry x="0.0691" relative="1" as="geometry">
            <mxPoint as="offset" />
          </mxGeometry>
        </mxCell>
        <mxCell id="XYxXkfkzVl0odQ3r3NW9-34" value="incluye" style="rhombus;whiteSpace=wrap;html=1;" parent="1" vertex="1">
          <mxGeometry x="410" y="674" width="80" height="80" as="geometry" />
        </mxCell>
        <mxCell id="XYxXkfkzVl0odQ3r3NW9-35" value="" style="endArrow=none;html=1;rounded=0;entryX=0.5;entryY=0;entryDx=0;entryDy=0;exitX=0.5;exitY=1;exitDx=0;exitDy=0;" parent="1" source="XYxXkfkzVl0odQ3r3NW9-34" target="XYxXkfkzVl0odQ3r3NW9-40" edge="1">
          <mxGeometry width="50" height="50" relative="1" as="geometry">
            <mxPoint x="460" y="758" as="sourcePoint" />
            <mxPoint x="450" y="836" as="targetPoint" />
          </mxGeometry>
        </mxCell>
        <mxCell id="XYxXkfkzVl0odQ3r3NW9-160" value="&lt;font style=&quot;font-size: 18px;&quot;&gt;1&lt;/font&gt;" style="edgeLabel;html=1;align=center;verticalAlign=middle;resizable=0;points=[];" parent="XYxXkfkzVl0odQ3r3NW9-35" vertex="1" connectable="0">
          <mxGeometry x="0.0407" y="-1" relative="1" as="geometry">
            <mxPoint as="offset" />
          </mxGeometry>
        </mxCell>
        <mxCell id="XYxXkfkzVl0odQ3r3NW9-40" value="comic" style="whiteSpace=wrap;html=1;" parent="1" vertex="1">
          <mxGeometry x="390" y="836" width="120" height="62" as="geometry" />
        </mxCell>
        <mxCell id="XYxXkfkzVl0odQ3r3NW9-41" value="" style="endArrow=none;html=1;rounded=0;exitX=1;exitY=0;exitDx=0;exitDy=0;entryX=0;entryY=0.5;entryDx=0;entryDy=0;" parent="1" source="XYxXkfkzVl0odQ3r3NW9-40" target="XYxXkfkzVl0odQ3r3NW9-43" edge="1">
          <mxGeometry width="50" height="50" relative="1" as="geometry">
            <mxPoint x="510" y="848" as="sourcePoint" />
            <mxPoint x="640" y="758" as="targetPoint" />
          </mxGeometry>
        </mxCell>
        <mxCell id="XYxXkfkzVl0odQ3r3NW9-170" value="&lt;font style=&quot;font-size: 18px;&quot;&gt;1&lt;/font&gt;" style="edgeLabel;html=1;align=center;verticalAlign=middle;resizable=0;points=[];" parent="XYxXkfkzVl0odQ3r3NW9-41" vertex="1" connectable="0">
          <mxGeometry x="-0.0371" relative="1" as="geometry">
            <mxPoint as="offset" />
          </mxGeometry>
        </mxCell>
        <mxCell id="XYxXkfkzVl0odQ3r3NW9-172" value="&lt;font style=&quot;font-size: 18px;&quot;&gt;N&lt;/font&gt;" style="edgeLabel;html=1;align=center;verticalAlign=middle;resizable=0;points=[];" parent="XYxXkfkzVl0odQ3r3NW9-41" vertex="1" connectable="0">
          <mxGeometry x="0.0074" relative="1" as="geometry">
            <mxPoint as="offset" />
          </mxGeometry>
        </mxCell>
        <mxCell id="XYxXkfkzVl0odQ3r3NW9-43" value="escribe" style="rhombus;whiteSpace=wrap;html=1;" parent="1" vertex="1">
          <mxGeometry x="670" y="700" width="80" height="80" as="geometry" />
        </mxCell>
        <mxCell id="XYxXkfkzVl0odQ3r3NW9-44" value="autor" style="whiteSpace=wrap;html=1;" parent="1" vertex="1">
          <mxGeometry x="831" y="709" width="120" height="62" as="geometry" />
        </mxCell>
        <mxCell id="XYxXkfkzVl0odQ3r3NW9-45" value="" style="endArrow=none;html=1;rounded=0;exitX=1;exitY=0.5;exitDx=0;exitDy=0;entryX=0;entryY=0.5;entryDx=0;entryDy=0;" parent="1" source="XYxXkfkzVl0odQ3r3NW9-43" target="XYxXkfkzVl0odQ3r3NW9-44" edge="1">
          <mxGeometry width="50" height="50" relative="1" as="geometry">
            <mxPoint x="720" y="758" as="sourcePoint" />
            <mxPoint x="800" y="758" as="targetPoint" />
          </mxGeometry>
        </mxCell>
        <mxCell id="XYxXkfkzVl0odQ3r3NW9-171" value="&lt;font style=&quot;font-size: 18px;&quot;&gt;1&lt;/font&gt;" style="edgeLabel;html=1;align=center;verticalAlign=middle;resizable=0;points=[];" parent="XYxXkfkzVl0odQ3r3NW9-45" vertex="1" connectable="0">
          <mxGeometry x="-0.0617" relative="1" as="geometry">
            <mxPoint as="offset" />
          </mxGeometry>
        </mxCell>
        <mxCell id="XYxXkfkzVl0odQ3r3NW9-48" value="" style="endArrow=none;html=1;rounded=0;exitX=1;exitY=0.5;exitDx=0;exitDy=0;entryX=0.032;entryY=0.498;entryDx=0;entryDy=0;entryPerimeter=0;" parent="1" source="XYxXkfkzVl0odQ3r3NW9-40" target="XYxXkfkzVl0odQ3r3NW9-49" edge="1">
          <mxGeometry width="50" height="50" relative="1" as="geometry">
            <mxPoint x="530" y="888" as="sourcePoint" />
            <mxPoint x="670" y="868" as="targetPoint" />
          </mxGeometry>
        </mxCell>
        <mxCell id="XYxXkfkzVl0odQ3r3NW9-179" value="&lt;font style=&quot;font-size: 18px;&quot;&gt;N&lt;/font&gt;" style="edgeLabel;html=1;align=center;verticalAlign=middle;resizable=0;points=[];" parent="XYxXkfkzVl0odQ3r3NW9-48" vertex="1" connectable="0">
          <mxGeometry x="0.0827" relative="1" as="geometry">
            <mxPoint as="offset" />
          </mxGeometry>
        </mxCell>
        <mxCell id="XYxXkfkzVl0odQ3r3NW9-49" value="publica" style="rhombus;whiteSpace=wrap;html=1;" parent="1" vertex="1">
          <mxGeometry x="670" y="828" width="80" height="80" as="geometry" />
        </mxCell>
        <mxCell id="XYxXkfkzVl0odQ3r3NW9-53" value="" style="endArrow=none;html=1;rounded=0;exitX=1;exitY=0.5;exitDx=0;exitDy=0;entryX=0;entryY=0.5;entryDx=0;entryDy=0;" parent="1" source="XYxXkfkzVl0odQ3r3NW9-49" target="XYxXkfkzVl0odQ3r3NW9-54" edge="1">
          <mxGeometry width="50" height="50" relative="1" as="geometry">
            <mxPoint x="750" y="868" as="sourcePoint" />
            <mxPoint x="830" y="867.83" as="targetPoint" />
          </mxGeometry>
        </mxCell>
        <mxCell id="XYxXkfkzVl0odQ3r3NW9-182" value="&lt;font style=&quot;font-size: 18px;&quot;&gt;1&lt;/font&gt;" style="edgeLabel;html=1;align=center;verticalAlign=middle;resizable=0;points=[];" parent="XYxXkfkzVl0odQ3r3NW9-53" vertex="1" connectable="0">
          <mxGeometry x="0.0221" y="1" relative="1" as="geometry">
            <mxPoint as="offset" />
          </mxGeometry>
        </mxCell>
        <mxCell id="XYxXkfkzVl0odQ3r3NW9-54" value="editorial" style="whiteSpace=wrap;html=1;" parent="1" vertex="1">
          <mxGeometry x="831" y="836" width="117" height="62" as="geometry" />
        </mxCell>
        <mxCell id="XYxXkfkzVl0odQ3r3NW9-56" value="" style="endArrow=none;html=1;rounded=0;exitX=1;exitY=1;exitDx=0;exitDy=0;entryX=0.053;entryY=0.529;entryDx=0;entryDy=0;entryPerimeter=0;" parent="1" source="XYxXkfkzVl0odQ3r3NW9-40" target="XYxXkfkzVl0odQ3r3NW9-57" edge="1">
          <mxGeometry width="50" height="50" relative="1" as="geometry">
            <mxPoint x="530" y="988" as="sourcePoint" />
            <mxPoint x="680" y="968" as="targetPoint" />
          </mxGeometry>
        </mxCell>
        <mxCell id="XYxXkfkzVl0odQ3r3NW9-183" value="&lt;font style=&quot;font-size: 18px;&quot;&gt;N&lt;/font&gt;" style="edgeLabel;html=1;align=center;verticalAlign=middle;resizable=0;points=[];" parent="XYxXkfkzVl0odQ3r3NW9-56" vertex="1" connectable="0">
          <mxGeometry x="-0.0347" y="-1" relative="1" as="geometry">
            <mxPoint as="offset" />
          </mxGeometry>
        </mxCell>
        <mxCell id="XYxXkfkzVl0odQ3r3NW9-57" value="clasifica" style="rhombus;whiteSpace=wrap;html=1;" parent="1" vertex="1">
          <mxGeometry x="670" y="948" width="80" height="80" as="geometry" />
        </mxCell>
        <mxCell id="XYxXkfkzVl0odQ3r3NW9-59" value="" style="endArrow=none;html=1;rounded=0;entryX=0;entryY=0.5;entryDx=0;entryDy=0;exitX=1;exitY=0.5;exitDx=0;exitDy=0;" parent="1" source="XYxXkfkzVl0odQ3r3NW9-57" target="XYxXkfkzVl0odQ3r3NW9-61" edge="1">
          <mxGeometry width="50" height="50" relative="1" as="geometry">
            <mxPoint x="750" y="988" as="sourcePoint" />
            <mxPoint x="831" y="987.5" as="targetPoint" />
          </mxGeometry>
        </mxCell>
        <mxCell id="XYxXkfkzVl0odQ3r3NW9-184" value="&lt;font style=&quot;font-size: 18px;&quot;&gt;1&lt;/font&gt;" style="edgeLabel;html=1;align=center;verticalAlign=middle;resizable=0;points=[];" parent="XYxXkfkzVl0odQ3r3NW9-59" vertex="1" connectable="0">
          <mxGeometry x="-0.0123" y="2" relative="1" as="geometry">
            <mxPoint as="offset" />
          </mxGeometry>
        </mxCell>
        <mxCell id="XYxXkfkzVl0odQ3r3NW9-61" value="genero" style="whiteSpace=wrap;html=1;" parent="1" vertex="1">
          <mxGeometry x="831" y="957" width="117" height="62" as="geometry" />
        </mxCell>
        <mxCell id="XYxXkfkzVl0odQ3r3NW9-64" value="" style="endArrow=none;html=1;rounded=0;exitX=1;exitY=0.5;exitDx=0;exitDy=0;entryX=0;entryY=0.5;entryDx=0;entryDy=0;" parent="1" source="XYxXkfkzVl0odQ3r3NW9-65" target="XYxXkfkzVl0odQ3r3NW9-40" edge="1">
          <mxGeometry width="50" height="50" relative="1" as="geometry">
            <mxPoint x="226" y="738" as="sourcePoint" />
            <mxPoint x="390" y="845" as="targetPoint" />
          </mxGeometry>
        </mxCell>
        <mxCell id="XYxXkfkzVl0odQ3r3NW9-173" value="&lt;font style=&quot;font-size: 18px;&quot;&gt;1&lt;/font&gt;" style="edgeLabel;html=1;align=center;verticalAlign=middle;resizable=0;points=[];" parent="XYxXkfkzVl0odQ3r3NW9-64" vertex="1" connectable="0">
          <mxGeometry x="0.0501" relative="1" as="geometry">
            <mxPoint as="offset" />
          </mxGeometry>
        </mxCell>
        <mxCell id="XYxXkfkzVl0odQ3r3NW9-65" value="contiene" style="rhombus;whiteSpace=wrap;html=1;" parent="1" vertex="1">
          <mxGeometry x="130" y="754" width="84" height="80" as="geometry" />
        </mxCell>
        <mxCell id="XYxXkfkzVl0odQ3r3NW9-67" value="" style="endArrow=none;html=1;rounded=0;exitX=1;exitY=0.5;exitDx=0;exitDy=0;entryX=0;entryY=0.5;entryDx=0;entryDy=0;" parent="1" source="XYxXkfkzVl0odQ3r3NW9-69" target="XYxXkfkzVl0odQ3r3NW9-65" edge="1">
          <mxGeometry width="50" height="50" relative="1" as="geometry">
            <mxPoint x="66" y="737.92" as="sourcePoint" />
            <mxPoint x="146" y="737.92" as="targetPoint" />
          </mxGeometry>
        </mxCell>
        <mxCell id="XYxXkfkzVl0odQ3r3NW9-174" value="&lt;font style=&quot;font-size: 18px;&quot;&gt;N&lt;/font&gt;" style="edgeLabel;html=1;align=center;verticalAlign=middle;resizable=0;points=[];" parent="XYxXkfkzVl0odQ3r3NW9-67" vertex="1" connectable="0">
          <mxGeometry relative="1" as="geometry">
            <mxPoint as="offset" />
          </mxGeometry>
        </mxCell>
        <mxCell id="XYxXkfkzVl0odQ3r3NW9-69" value="inventario" style="whiteSpace=wrap;html=1;" parent="1" vertex="1">
          <mxGeometry x="-89" y="763" width="120" height="62" as="geometry" />
        </mxCell>
        <mxCell id="XYxXkfkzVl0odQ3r3NW9-70" value="" style="endArrow=none;html=1;rounded=0;exitX=1;exitY=0.5;exitDx=0;exitDy=0;entryX=0;entryY=0.5;entryDx=0;entryDy=0;exitPerimeter=0;" parent="1" source="XYxXkfkzVl0odQ3r3NW9-72" target="XYxXkfkzVl0odQ3r3NW9-69" edge="1">
          <mxGeometry width="50" height="50" relative="1" as="geometry">
            <mxPoint x="-134" y="737.76" as="sourcePoint" />
            <mxPoint x="-54" y="737.76" as="targetPoint" />
          </mxGeometry>
        </mxCell>
        <mxCell id="XYxXkfkzVl0odQ3r3NW9-176" value="&lt;font style=&quot;font-size: 18px;&quot;&gt;N&lt;/font&gt;" style="edgeLabel;html=1;align=center;verticalAlign=middle;resizable=0;points=[];" parent="XYxXkfkzVl0odQ3r3NW9-70" vertex="1" connectable="0">
          <mxGeometry x="-0.0846" y="-1" relative="1" as="geometry">
            <mxPoint as="offset" />
          </mxGeometry>
        </mxCell>
        <mxCell id="XYxXkfkzVl0odQ3r3NW9-72" value="recibe" style="rhombus;whiteSpace=wrap;html=1;" parent="1" vertex="1">
          <mxGeometry x="-240" y="754" width="84" height="80" as="geometry" />
        </mxCell>
        <mxCell id="XYxXkfkzVl0odQ3r3NW9-73" value="" style="endArrow=none;html=1;rounded=0;exitX=1;exitY=0.5;exitDx=0;exitDy=0;entryX=0;entryY=0.5;entryDx=0;entryDy=0;" parent="1" source="XYxXkfkzVl0odQ3r3NW9-74" target="XYxXkfkzVl0odQ3r3NW9-72" edge="1">
          <mxGeometry width="50" height="50" relative="1" as="geometry">
            <mxPoint x="-298" y="737.9399999999999" as="sourcePoint" />
            <mxPoint x="-218" y="737.9399999999999" as="targetPoint" />
          </mxGeometry>
        </mxCell>
        <mxCell id="XYxXkfkzVl0odQ3r3NW9-175" value="&lt;font style=&quot;font-size: 18px;&quot;&gt;1&lt;/font&gt;" style="edgeLabel;html=1;align=center;verticalAlign=middle;resizable=0;points=[];" parent="XYxXkfkzVl0odQ3r3NW9-73" vertex="1" connectable="0">
          <mxGeometry x="0.1571" y="-2" relative="1" as="geometry">
            <mxPoint as="offset" />
          </mxGeometry>
        </mxCell>
        <mxCell id="XYxXkfkzVl0odQ3r3NW9-74" value="proveedor" style="whiteSpace=wrap;html=1;" parent="1" vertex="1">
          <mxGeometry x="-430" y="763" width="120" height="62" as="geometry" />
        </mxCell>
        <mxCell id="XYxXkfkzVl0odQ3r3NW9-76" value="" style="endArrow=none;html=1;rounded=0;entryX=0;entryY=0;entryDx=0;entryDy=0;exitX=1;exitY=0.5;exitDx=0;exitDy=0;" parent="1" source="XYxXkfkzVl0odQ3r3NW9-79" target="XYxXkfkzVl0odQ3r3NW9-40" edge="1">
          <mxGeometry width="50" height="50" relative="1" as="geometry">
            <mxPoint x="240" y="598" as="sourcePoint" />
            <mxPoint x="420" y="833" as="targetPoint" />
          </mxGeometry>
        </mxCell>
        <mxCell id="XYxXkfkzVl0odQ3r3NW9-162" value="&lt;font style=&quot;font-size: 18px;&quot;&gt;1&lt;/font&gt;" style="edgeLabel;html=1;align=center;verticalAlign=middle;resizable=0;points=[];" parent="XYxXkfkzVl0odQ3r3NW9-76" vertex="1" connectable="0">
          <mxGeometry x="-0.0291" y="1" relative="1" as="geometry">
            <mxPoint as="offset" />
          </mxGeometry>
        </mxCell>
        <mxCell id="XYxXkfkzVl0odQ3r3NW9-79" value="evalÃºa" style="rhombus;whiteSpace=wrap;html=1;" parent="1" vertex="1">
          <mxGeometry x="230" y="494.88" width="80" height="80" as="geometry" />
        </mxCell>
        <mxCell id="XYxXkfkzVl0odQ3r3NW9-82" value="" style="endArrow=none;html=1;rounded=0;entryX=0;entryY=0.5;entryDx=0;entryDy=0;exitX=1;exitY=0.5;exitDx=0;exitDy=0;" parent="1" source="XYxXkfkzVl0odQ3r3NW9-85" target="XYxXkfkzVl0odQ3r3NW9-79" edge="1">
          <mxGeometry width="50" height="50" relative="1" as="geometry">
            <mxPoint x="60" y="597.9" as="sourcePoint" />
            <mxPoint x="160" y="597.9" as="targetPoint" />
          </mxGeometry>
        </mxCell>
        <mxCell id="XYxXkfkzVl0odQ3r3NW9-163" value="&lt;font style=&quot;font-size: 18px;&quot;&gt;N&lt;/font&gt;" style="edgeLabel;html=1;align=center;verticalAlign=middle;resizable=0;points=[];" parent="XYxXkfkzVl0odQ3r3NW9-82" vertex="1" connectable="0">
          <mxGeometry x="-0.0111" y="1" relative="1" as="geometry">
            <mxPoint as="offset" />
          </mxGeometry>
        </mxCell>
        <mxCell id="XYxXkfkzVl0odQ3r3NW9-85" value="reseÃ±a" style="whiteSpace=wrap;html=1;" parent="1" vertex="1">
          <mxGeometry x="50" y="503.88" width="120" height="62" as="geometry" />
        </mxCell>
        <mxCell id="XYxXkfkzVl0odQ3r3NW9-86" value="" style="endArrow=none;html=1;rounded=0;exitX=0.5;exitY=1;exitDx=0;exitDy=0;entryX=0.42;entryY=-0.001;entryDx=0;entryDy=0;entryPerimeter=0;" parent="1" source="XYxXkfkzVl0odQ3r3NW9-88" target="XYxXkfkzVl0odQ3r3NW9-85" edge="1">
          <mxGeometry width="50" height="50" relative="1" as="geometry">
            <mxPoint x="-10" y="485" as="sourcePoint" />
            <mxPoint x="-10" y="567" as="targetPoint" />
          </mxGeometry>
        </mxCell>
        <mxCell id="XYxXkfkzVl0odQ3r3NW9-165" value="&lt;font style=&quot;font-size: 18px;&quot;&gt;N&lt;/font&gt;" style="edgeLabel;html=1;align=center;verticalAlign=middle;resizable=0;points=[];" parent="XYxXkfkzVl0odQ3r3NW9-86" vertex="1" connectable="0">
          <mxGeometry x="-0.1379" y="-1" relative="1" as="geometry">
            <mxPoint as="offset" />
          </mxGeometry>
        </mxCell>
        <mxCell id="XYxXkfkzVl0odQ3r3NW9-88" value="comenta" style="rhombus;whiteSpace=wrap;html=1;" parent="1" vertex="1">
          <mxGeometry x="61" y="360" width="80" height="80" as="geometry" />
        </mxCell>
        <mxCell id="XYxXkfkzVl0odQ3r3NW9-90" value="" style="endArrow=none;html=1;rounded=0;entryX=0.5;entryY=1;entryDx=0;entryDy=0;exitX=0.5;exitY=0;exitDx=0;exitDy=0;" parent="1" source="XYxXkfkzVl0odQ3r3NW9-88" target="XYxXkfkzVl0odQ3r3NW9-16" edge="1">
          <mxGeometry width="50" height="50" relative="1" as="geometry">
            <mxPoint x="-10" y="404" as="sourcePoint" />
            <mxPoint x="20" y="348" as="targetPoint" />
          </mxGeometry>
        </mxCell>
        <mxCell id="XYxXkfkzVl0odQ3r3NW9-164" value="&lt;font style=&quot;font-size: 18px;&quot;&gt;1&lt;/font&gt;" style="edgeLabel;html=1;align=center;verticalAlign=middle;resizable=0;points=[];" parent="XYxXkfkzVl0odQ3r3NW9-90" vertex="1" connectable="0">
          <mxGeometry x="-0.0062" y="-2" relative="1" as="geometry">
            <mxPoint as="offset" />
          </mxGeometry>
        </mxCell>
        <mxCell id="XYxXkfkzVl0odQ3r3NW9-91" value="" style="endArrow=none;html=1;rounded=0;entryX=0;entryY=1;entryDx=0;entryDy=0;exitX=1;exitY=0.5;exitDx=0;exitDy=0;" parent="1" source="XYxXkfkzVl0odQ3r3NW9-92" target="XYxXkfkzVl0odQ3r3NW9-40" edge="1">
          <mxGeometry width="50" height="50" relative="1" as="geometry">
            <mxPoint x="220" y="938" as="sourcePoint" />
            <mxPoint x="388" y="938" as="targetPoint" />
          </mxGeometry>
        </mxCell>
        <mxCell id="XYxXkfkzVl0odQ3r3NW9-177" value="&lt;font style=&quot;font-size: 18px;&quot;&gt;1&lt;/font&gt;" style="edgeLabel;html=1;align=center;verticalAlign=middle;resizable=0;points=[];" parent="XYxXkfkzVl0odQ3r3NW9-91" vertex="1" connectable="0">
          <mxGeometry x="0.046" y="-1" relative="1" as="geometry">
            <mxPoint as="offset" />
          </mxGeometry>
        </mxCell>
        <mxCell id="XYxXkfkzVl0odQ3r3NW9-92" value="aplican" style="rhombus;whiteSpace=wrap;html=1;" parent="1" vertex="1">
          <mxGeometry x="130" y="898" width="84" height="80" as="geometry" />
        </mxCell>
        <mxCell id="XYxXkfkzVl0odQ3r3NW9-93" value="" style="endArrow=none;html=1;rounded=0;exitX=1;exitY=0.5;exitDx=0;exitDy=0;entryX=0;entryY=0.5;entryDx=0;entryDy=0;" parent="1" source="XYxXkfkzVl0odQ3r3NW9-94" target="XYxXkfkzVl0odQ3r3NW9-92" edge="1">
          <mxGeometry width="50" height="50" relative="1" as="geometry">
            <mxPoint x="32" y="937.71" as="sourcePoint" />
            <mxPoint x="110" y="918" as="targetPoint" />
          </mxGeometry>
        </mxCell>
        <mxCell id="XYxXkfkzVl0odQ3r3NW9-178" value="&lt;font style=&quot;font-size: 18px;&quot;&gt;N&lt;/font&gt;" style="edgeLabel;html=1;align=center;verticalAlign=middle;resizable=0;points=[];" parent="XYxXkfkzVl0odQ3r3NW9-93" vertex="1" connectable="0">
          <mxGeometry x="-0.0842" y="-1" relative="1" as="geometry">
            <mxPoint as="offset" />
          </mxGeometry>
        </mxCell>
        <mxCell id="XYxXkfkzVl0odQ3r3NW9-94" value="ofertas" style="whiteSpace=wrap;html=1;" parent="1" vertex="1">
          <mxGeometry x="-89" y="907" width="120" height="62" as="geometry" />
        </mxCell>
        <mxCell id="XYxXkfkzVl0odQ3r3NW9-95" value="" style="endArrow=none;html=1;rounded=0;exitX=1;exitY=1;exitDx=0;exitDy=0;entryX=0;entryY=0.5;entryDx=0;entryDy=0;" parent="1" source="XYxXkfkzVl0odQ3r3NW9-1" target="XYxXkfkzVl0odQ3r3NW9-97" edge="1">
          <mxGeometry width="50" height="50" relative="1" as="geometry">
            <mxPoint x="521" y="298" as="sourcePoint" />
            <mxPoint x="650" y="428" as="targetPoint" />
          </mxGeometry>
        </mxCell>
        <mxCell id="XYxXkfkzVl0odQ3r3NW9-157" value="&lt;font style=&quot;font-size: 18px;&quot;&gt;1&lt;/font&gt;" style="edgeLabel;html=1;align=center;verticalAlign=middle;resizable=0;points=[];" parent="XYxXkfkzVl0odQ3r3NW9-95" vertex="1" connectable="0">
          <mxGeometry x="-0.0344" y="2" relative="1" as="geometry">
            <mxPoint as="offset" />
          </mxGeometry>
        </mxCell>
        <mxCell id="XYxXkfkzVl0odQ3r3NW9-97" value="genera" style="rhombus;whiteSpace=wrap;html=1;" parent="1" vertex="1">
          <mxGeometry x="770" y="378" width="80" height="80" as="geometry" />
        </mxCell>
        <mxCell id="XYxXkfkzVl0odQ3r3NW9-99" value="" style="endArrow=none;html=1;rounded=0;entryX=0;entryY=0.5;entryDx=0;entryDy=0;exitX=1;exitY=0.5;exitDx=0;exitDy=0;" parent="1" source="XYxXkfkzVl0odQ3r3NW9-97" target="XYxXkfkzVl0odQ3r3NW9-100" edge="1">
          <mxGeometry width="50" height="50" relative="1" as="geometry">
            <mxPoint x="770" y="398" as="sourcePoint" />
            <mxPoint x="830" y="417.6" as="targetPoint" />
          </mxGeometry>
        </mxCell>
        <mxCell id="XYxXkfkzVl0odQ3r3NW9-166" value="&lt;font style=&quot;font-size: 18px;&quot;&gt;N&lt;/font&gt;" style="edgeLabel;html=1;align=center;verticalAlign=middle;resizable=0;points=[];" parent="XYxXkfkzVl0odQ3r3NW9-99" vertex="1" connectable="0">
          <mxGeometry x="-0.0472" y="-1" relative="1" as="geometry">
            <mxPoint as="offset" />
          </mxGeometry>
        </mxCell>
        <mxCell id="XYxXkfkzVl0odQ3r3NW9-100" value="envio" style="whiteSpace=wrap;html=1;" parent="1" vertex="1">
          <mxGeometry x="970" y="388" width="120" height="60" as="geometry" />
        </mxCell>
        <mxCell id="XYxXkfkzVl0odQ3r3NW9-102" value="define" style="rhombus;whiteSpace=wrap;html=1;" parent="1" vertex="1">
          <mxGeometry x="1190" y="378" width="80" height="80" as="geometry" />
        </mxCell>
        <mxCell id="XYxXkfkzVl0odQ3r3NW9-103" value="" style="endArrow=none;html=1;rounded=0;entryX=0;entryY=0.5;entryDx=0;entryDy=0;exitX=1;exitY=0.5;exitDx=0;exitDy=0;" parent="1" source="XYxXkfkzVl0odQ3r3NW9-100" target="XYxXkfkzVl0odQ3r3NW9-102" edge="1">
          <mxGeometry width="50" height="50" relative="1" as="geometry">
            <mxPoint x="964" y="418" as="sourcePoint" />
            <mxPoint x="1047" y="417.94" as="targetPoint" />
          </mxGeometry>
        </mxCell>
        <mxCell id="XYxXkfkzVl0odQ3r3NW9-168" value="&lt;font style=&quot;font-size: 18px;&quot;&gt;N&lt;/font&gt;" style="edgeLabel;html=1;align=center;verticalAlign=middle;resizable=0;points=[];" parent="XYxXkfkzVl0odQ3r3NW9-103" vertex="1" connectable="0">
          <mxGeometry x="0.1433" relative="1" as="geometry">
            <mxPoint as="offset" />
          </mxGeometry>
        </mxCell>
        <mxCell id="XYxXkfkzVl0odQ3r3NW9-105" value="" style="endArrow=none;html=1;rounded=0;entryX=0.002;entryY=0.482;entryDx=0;entryDy=0;exitX=1;exitY=0.5;exitDx=0;exitDy=0;entryPerimeter=0;" parent="1" source="XYxXkfkzVl0odQ3r3NW9-102" target="XYxXkfkzVl0odQ3r3NW9-106" edge="1">
          <mxGeometry width="50" height="50" relative="1" as="geometry">
            <mxPoint x="1143" y="418" as="sourcePoint" />
            <mxPoint x="1252" y="417.68" as="targetPoint" />
          </mxGeometry>
        </mxCell>
        <mxCell id="XYxXkfkzVl0odQ3r3NW9-167" value="&lt;font style=&quot;font-size: 18px;&quot;&gt;1&lt;/font&gt;" style="edgeLabel;html=1;align=center;verticalAlign=middle;resizable=0;points=[];" parent="XYxXkfkzVl0odQ3r3NW9-105" vertex="1" connectable="0">
          <mxGeometry x="-0.0835" y="2" relative="1" as="geometry">
            <mxPoint as="offset" />
          </mxGeometry>
        </mxCell>
        <mxCell id="XYxXkfkzVl0odQ3r3NW9-106" value="tarifaenvio" style="whiteSpace=wrap;html=1;" parent="1" vertex="1">
          <mxGeometry x="1360" y="388" width="120" height="60" as="geometry" />
        </mxCell>
        <mxCell id="XYxXkfkzVl0odQ3r3NW9-109" value="" style="endArrow=none;html=1;rounded=0;exitX=0.5;exitY=0;exitDx=0;exitDy=0;entryX=0.5;entryY=1;entryDx=0;entryDy=0;" parent="1" source="XYxXkfkzVl0odQ3r3NW9-1" target="XYxXkfkzVl0odQ3r3NW9-113" edge="1">
          <mxGeometry width="50" height="50" relative="1" as="geometry">
            <mxPoint x="410" y="210" as="sourcePoint" />
            <mxPoint x="440" y="210" as="targetPoint" />
          </mxGeometry>
        </mxCell>
        <mxCell id="XYxXkfkzVl0odQ3r3NW9-110" value="&lt;div align=&quot;justify&quot;&gt;&lt;blockquote&gt;cliente_id (PK)&lt;br&gt;nombre &lt;br&gt;apellido &lt;br&gt;email &lt;br&gt;direccion &lt;br&gt;telefono &lt;br&gt;&lt;/blockquote&gt;&lt;/div&gt;" style="ellipse;whiteSpace=wrap;html=1;align=center;" parent="1" vertex="1">
          <mxGeometry x="19.5" y="75" width="160.5" height="115" as="geometry" />
        </mxCell>
        <mxCell id="XYxXkfkzVl0odQ3r3NW9-111" value="" style="endArrow=none;html=1;rounded=0;exitX=0.5;exitY=0;exitDx=0;exitDy=0;entryX=0.5;entryY=1;entryDx=0;entryDy=0;" parent="1" source="XYxXkfkzVl0odQ3r3NW9-16" target="XYxXkfkzVl0odQ3r3NW9-110" edge="1">
          <mxGeometry width="50" height="50" relative="1" as="geometry">
            <mxPoint x="55" y="230" as="sourcePoint" />
            <mxPoint x="105" y="180" as="targetPoint" />
          </mxGeometry>
        </mxCell>
        <mxCell id="XYxXkfkzVl0odQ3r3NW9-113" value="&lt;blockquote&gt;&lt;div align=&quot;left&quot;&gt;&lt;strong&gt;pedido_id&lt;/strong&gt; (PK)&lt;br&gt;&lt;strong&gt;cliente_id&lt;/strong&gt; (FK)&lt;br&gt;&lt;strong&gt;fecha_pedido&lt;/strong&gt;&lt;br&gt;&lt;strong&gt;estado&lt;/strong&gt; &lt;br&gt;&lt;strong&gt;total&lt;/strong&gt; &lt;br&gt;&lt;/div&gt;&lt;/blockquote&gt;" style="ellipse;whiteSpace=wrap;html=1;align=left;" parent="1" vertex="1">
          <mxGeometry x="365" y="67.5" width="170" height="120" as="geometry" />
        </mxCell>
        <mxCell id="XYxXkfkzVl0odQ3r3NW9-116" value="&lt;blockquote&gt;&lt;strong&gt;pago_id&lt;/strong&gt; (PK)&lt;br&gt;&lt;strong&gt;pedido_id&lt;/strong&gt; (FK)&lt;br&gt;&lt;strong&gt;fecha_pago&lt;/strong&gt;&lt;br&gt;&lt;strong&gt;monto&lt;/strong&gt; &lt;br&gt;&lt;strong&gt;metodo_pago&lt;/strong&gt; &lt;br&gt;&lt;/blockquote&gt;" style="ellipse;whiteSpace=wrap;html=1;align=left;" parent="1" vertex="1">
          <mxGeometry x="786" y="67.5" width="169" height="120" as="geometry" />
        </mxCell>
        <mxCell id="XYxXkfkzVl0odQ3r3NW9-119" value="" style="endArrow=none;html=1;rounded=0;exitX=0.5;exitY=0;exitDx=0;exitDy=0;entryX=0.5;entryY=1;entryDx=0;entryDy=0;" parent="1" source="XYxXkfkzVl0odQ3r3NW9-21" target="XYxXkfkzVl0odQ3r3NW9-116" edge="1">
          <mxGeometry width="50" height="50" relative="1" as="geometry">
            <mxPoint x="810" y="228" as="sourcePoint" />
            <mxPoint x="860" y="178" as="targetPoint" />
          </mxGeometry>
        </mxCell>
        <mxCell id="XYxXkfkzVl0odQ3r3NW9-120" value="&lt;blockquote&gt;&lt;strong&gt;detalle_id&lt;/strong&gt; (PK)&lt;br&gt;&lt;strong&gt;pedido_id&lt;/strong&gt; (FK)&lt;br&gt;&lt;strong&gt;comic_id&lt;/strong&gt; (FK)&lt;br&gt;&lt;strong&gt;cantidad&lt;/strong&gt; &lt;br&gt;&lt;strong&gt;precio_unitario&lt;/strong&gt; &lt;br&gt;&lt;/blockquote&gt;" style="ellipse;whiteSpace=wrap;html=1;align=left;" parent="1" vertex="1">
          <mxGeometry x="600" y="503.88" width="160" height="114.25" as="geometry" />
        </mxCell>
        <mxCell id="XYxXkfkzVl0odQ3r3NW9-121" value="" style="endArrow=none;html=1;rounded=0;exitX=0;exitY=0.5;exitDx=0;exitDy=0;entryX=1;entryY=0.5;entryDx=0;entryDy=0;" parent="1" source="XYxXkfkzVl0odQ3r3NW9-120" target="XYxXkfkzVl0odQ3r3NW9-25" edge="1">
          <mxGeometry width="50" height="50" relative="1" as="geometry">
            <mxPoint x="560" y="604" as="sourcePoint" />
            <mxPoint x="510" y="566" as="targetPoint" />
          </mxGeometry>
        </mxCell>
        <mxCell id="XYxXkfkzVl0odQ3r3NW9-123" value="" style="endArrow=none;html=1;rounded=0;exitX=0.5;exitY=1;exitDx=0;exitDy=0;entryX=0.5;entryY=0;entryDx=0;entryDy=0;" parent="1" source="XYxXkfkzVl0odQ3r3NW9-40" target="XYxXkfkzVl0odQ3r3NW9-124" edge="1">
          <mxGeometry width="50" height="50" relative="1" as="geometry">
            <mxPoint x="470" y="941" as="sourcePoint" />
            <mxPoint x="450" y="980" as="targetPoint" />
          </mxGeometry>
        </mxCell>
        <mxCell id="XYxXkfkzVl0odQ3r3NW9-124" value="&lt;blockquote&gt;&lt;blockquote&gt;&lt;div align=&quot;left&quot;&gt;&lt;strong&gt;comic_id&lt;/strong&gt; ( PK)&lt;br&gt;&lt;strong&gt;titulo&lt;/strong&gt; &lt;br&gt;&lt;strong&gt;autor_id&lt;/strong&gt; (FK)&lt;br&gt;&lt;strong&gt;editorial_id&lt;/strong&gt; (FK)&lt;br&gt;&lt;strong&gt;genero_id&lt;/strong&gt; (FK)&lt;br&gt;&lt;strong&gt;precio&lt;/strong&gt; &lt;br&gt;&lt;strong&gt;fecha_publicacion&lt;/strong&gt; &lt;br&gt;&lt;strong&gt;descripcion&lt;/strong&gt; &lt;br&gt;&lt;strong&gt;stock&lt;/strong&gt; &lt;br&gt;&lt;/div&gt;&lt;/blockquote&gt;&lt;/blockquote&gt;" style="ellipse;whiteSpace=wrap;html=1;align=left;" parent="1" vertex="1">
          <mxGeometry x="330" y="953" width="240" height="160" as="geometry" />
        </mxCell>
        <mxCell id="XYxXkfkzVl0odQ3r3NW9-125" value="" style="endArrow=none;html=1;rounded=0;exitX=1;exitY=0.5;exitDx=0;exitDy=0;entryX=0;entryY=0.5;entryDx=0;entryDy=0;" parent="1" source="XYxXkfkzVl0odQ3r3NW9-44" target="XYxXkfkzVl0odQ3r3NW9-126" edge="1">
          <mxGeometry width="50" height="50" relative="1" as="geometry">
            <mxPoint x="930" y="757.81" as="sourcePoint" />
            <mxPoint x="1010" y="757.81" as="targetPoint" />
          </mxGeometry>
        </mxCell>
        <mxCell id="XYxXkfkzVl0odQ3r3NW9-126" value="&lt;blockquote&gt;&lt;strong&gt;autor_id&lt;/strong&gt; (PK)&lt;br&gt;&lt;strong&gt;nombre&lt;/strong&gt; &lt;br&gt;&lt;strong&gt;apellido&lt;/strong&gt; &lt;br&gt;&lt;strong&gt;nacionalidad&lt;/strong&gt;&lt;/blockquote&gt;" style="ellipse;whiteSpace=wrap;html=1;align=left;" parent="1" vertex="1">
          <mxGeometry x="1031.5" y="696.22" width="158.5" height="87.56" as="geometry" />
        </mxCell>
        <mxCell id="XYxXkfkzVl0odQ3r3NW9-127" value="" style="endArrow=none;html=1;rounded=0;exitX=1;exitY=0.5;exitDx=0;exitDy=0;entryX=0;entryY=0.5;entryDx=0;entryDy=0;" parent="1" source="XYxXkfkzVl0odQ3r3NW9-54" target="XYxXkfkzVl0odQ3r3NW9-128" edge="1">
          <mxGeometry width="50" height="50" relative="1" as="geometry">
            <mxPoint x="948" y="888" as="sourcePoint" />
            <mxPoint x="1027" y="867" as="targetPoint" />
          </mxGeometry>
        </mxCell>
        <mxCell id="XYxXkfkzVl0odQ3r3NW9-128" value="&lt;blockquote&gt;&lt;strong&gt;editorial_id&lt;/strong&gt; (PK)&lt;br&gt;&lt;strong&gt;nombre&lt;/strong&gt; &lt;br&gt;&lt;strong&gt;pais&lt;/strong&gt; &lt;br&gt;&lt;strong&gt;telefono&lt;/strong&gt; &lt;br&gt;&lt;/blockquote&gt;" style="ellipse;whiteSpace=wrap;html=1;align=left;" parent="1" vertex="1">
          <mxGeometry x="1031.5" y="822.22" width="168.5" height="89.56" as="geometry" />
        </mxCell>
        <mxCell id="XYxXkfkzVl0odQ3r3NW9-133" value="&lt;blockquote&gt;&lt;strong&gt;genero_id&lt;/strong&gt; (PK)&lt;br&gt;&lt;strong&gt;nombre&lt;/strong&gt; &lt;br&gt;&lt;/blockquote&gt;" style="ellipse;whiteSpace=wrap;html=1;align=left;" parent="1" vertex="1">
          <mxGeometry x="1031.5" y="953" width="158.5" height="70" as="geometry" />
        </mxCell>
        <mxCell id="XYxXkfkzVl0odQ3r3NW9-134" value="" style="endArrow=none;html=1;rounded=0;exitX=1;exitY=0.5;exitDx=0;exitDy=0;entryX=0;entryY=0.5;entryDx=0;entryDy=0;" parent="1" source="XYxXkfkzVl0odQ3r3NW9-61" target="XYxXkfkzVl0odQ3r3NW9-133" edge="1">
          <mxGeometry width="50" height="50" relative="1" as="geometry">
            <mxPoint x="948" y="989" as="sourcePoint" />
            <mxPoint x="1031" y="987" as="targetPoint" />
          </mxGeometry>
        </mxCell>
        <mxCell id="XYxXkfkzVl0odQ3r3NW9-135" value="" style="endArrow=none;html=1;rounded=0;entryX=0.5;entryY=0;entryDx=0;entryDy=0;exitX=0.5;exitY=1;exitDx=0;exitDy=0;" parent="1" source="XYxXkfkzVl0odQ3r3NW9-137" target="XYxXkfkzVl0odQ3r3NW9-74" edge="1">
          <mxGeometry width="50" height="50" relative="1" as="geometry">
            <mxPoint x="-380" y="680" as="sourcePoint" />
            <mxPoint x="-350" y="740" as="targetPoint" />
          </mxGeometry>
        </mxCell>
        <mxCell id="XYxXkfkzVl0odQ3r3NW9-136" value="&lt;blockquote&gt;&lt;strong&gt;envio_id&lt;/strong&gt; (PK)&lt;br&gt;&lt;strong&gt;pedido_id&lt;/strong&gt; (FK)&lt;br&gt;&lt;strong&gt;tarifa_id&lt;/strong&gt; (FK)&lt;br&gt;&lt;strong&gt;fecha_envio&lt;/strong&gt; &lt;br&gt;&lt;strong&gt;estado_envio&lt;/strong&gt; &lt;br&gt;&lt;strong&gt;numero_seguimiento&lt;/strong&gt; &lt;br&gt;&lt;/blockquote&gt;" style="ellipse;whiteSpace=wrap;html=1;align=left;" parent="1" vertex="1">
          <mxGeometry x="927.5" y="499" width="205" height="124" as="geometry" />
        </mxCell>
        <mxCell id="XYxXkfkzVl0odQ3r3NW9-137" value="&lt;blockquote&gt;&lt;strong&gt;proveedor_id&lt;/strong&gt; (PK)&lt;br&gt;&lt;strong&gt;nombre&lt;/strong&gt; &lt;br&gt;&lt;strong&gt;telefono&lt;/strong&gt; &lt;br&gt;&lt;strong&gt;direccion&lt;/strong&gt; &lt;br&gt;&lt;/blockquote&gt;" style="ellipse;whiteSpace=wrap;html=1;align=left;" parent="1" vertex="1">
          <mxGeometry x="-466.25" y="580" width="192.5" height="94" as="geometry" />
        </mxCell>
        <mxCell id="XYxXkfkzVl0odQ3r3NW9-139" value="" style="endArrow=none;html=1;rounded=0;exitX=0;exitY=0.5;exitDx=0;exitDy=0;entryX=1;entryY=0.5;entryDx=0;entryDy=0;" parent="1" source="XYxXkfkzVl0odQ3r3NW9-85" target="XYxXkfkzVl0odQ3r3NW9-140" edge="1">
          <mxGeometry width="50" height="50" relative="1" as="geometry">
            <mxPoint x="50" y="534.62" as="sourcePoint" />
            <mxPoint x="-10" y="530" as="targetPoint" />
          </mxGeometry>
        </mxCell>
        <mxCell id="XYxXkfkzVl0odQ3r3NW9-140" value="&lt;blockquote&gt;&lt;strong&gt;resena_id&lt;/strong&gt; (PK)&lt;br&gt;&lt;strong&gt;comic_id&lt;/strong&gt; (FK)&lt;br&gt;&lt;strong&gt;cliente_id&lt;/strong&gt; (FK)&lt;br&gt;&lt;strong&gt;fecha_resena&lt;/strong&gt; &lt;br&gt;&lt;strong&gt;calificacion&lt;/strong&gt; &lt;br&gt;&lt;strong&gt;comentario&lt;/strong&gt; &lt;br&gt;&lt;/blockquote&gt;" style="ellipse;whiteSpace=wrap;html=1;align=left;" parent="1" vertex="1">
          <mxGeometry x="-190" y="473.31" width="179.5" height="123.14" as="geometry" />
        </mxCell>
        <mxCell id="XYxXkfkzVl0odQ3r3NW9-141" value="" style="endArrow=none;html=1;rounded=0;exitX=0;exitY=0.5;exitDx=0;exitDy=0;entryX=1;entryY=0.5;entryDx=0;entryDy=0;" parent="1" source="XYxXkfkzVl0odQ3r3NW9-94" target="XYxXkfkzVl0odQ3r3NW9-142" edge="1">
          <mxGeometry width="50" height="50" relative="1" as="geometry">
            <mxPoint x="-95.25" y="937.82" as="sourcePoint" />
            <mxPoint x="-155.25" y="937.82" as="targetPoint" />
          </mxGeometry>
        </mxCell>
        <mxCell id="XYxXkfkzVl0odQ3r3NW9-142" value="&lt;blockquote&gt;&lt;strong&gt;oferta_id&lt;/strong&gt; (PK)&lt;br&gt;&lt;strong&gt;comic_id&lt;/strong&gt; (FK)&lt;br&gt;&lt;strong&gt;descuento&lt;/strong&gt; &lt;br&gt;&lt;strong&gt;fecha_inicio&lt;/strong&gt; &lt;br&gt;&lt;strong&gt;fecha_fin&lt;/strong&gt; &lt;br&gt;&lt;/blockquote&gt;" style="ellipse;whiteSpace=wrap;html=1;align=left;" parent="1" vertex="1">
          <mxGeometry x="-326" y="871.44" width="170" height="133.12" as="geometry" />
        </mxCell>
        <mxCell id="XYxXkfkzVl0odQ3r3NW9-143" value="" style="endArrow=none;html=1;rounded=0;exitX=0.5;exitY=1;exitDx=0;exitDy=0;entryX=0.5;entryY=0;entryDx=0;entryDy=0;" parent="1" source="XYxXkfkzVl0odQ3r3NW9-106" target="XYxXkfkzVl0odQ3r3NW9-144" edge="1">
          <mxGeometry width="50" height="50" relative="1" as="geometry">
            <mxPoint x="1341" y="472.75" as="sourcePoint" />
            <mxPoint x="1301" y="500" as="targetPoint" />
          </mxGeometry>
        </mxCell>
        <mxCell id="XYxXkfkzVl0odQ3r3NW9-144" value="&lt;div align=&quot;left&quot;&gt;&lt;blockquote&gt;&lt;strong&gt;tarifa_id&lt;/strong&gt; (PK)&lt;br&gt;&lt;strong&gt;zona&lt;/strong&gt; &lt;br&gt;&lt;strong&gt;costo&lt;/strong&gt; &lt;br&gt;&lt;strong&gt;metodo_envio&lt;/strong&gt; &lt;br&gt;&lt;/blockquote&gt;&lt;/div&gt;" style="ellipse;whiteSpace=wrap;html=1;align=left;" parent="1" vertex="1">
          <mxGeometry x="1341.98" y="494.88" width="156.03" height="95.12" as="geometry" />
        </mxCell>
        <mxCell id="XYxXkfkzVl0odQ3r3NW9-145" value="" style="endArrow=none;html=1;rounded=0;exitX=0.5;exitY=1;exitDx=0;exitDy=0;entryX=0.5;entryY=0;entryDx=0;entryDy=0;" parent="1" source="XYxXkfkzVl0odQ3r3NW9-100" target="XYxXkfkzVl0odQ3r3NW9-136" edge="1">
          <mxGeometry width="50" height="50" relative="1" as="geometry">
            <mxPoint x="940" y="448" as="sourcePoint" />
            <mxPoint x="940" y="510" as="targetPoint" />
          </mxGeometry>
        </mxCell>
        <mxCell id="XYxXkfkzVl0odQ3r3NW9-147" value="&lt;blockquote&gt;&lt;strong&gt;inventario_id&lt;/strong&gt; (PK)&lt;br&gt;&lt;strong&gt;comic_id&lt;/strong&gt; (FK)&lt;br&gt;&lt;strong&gt;proveedor_id&lt;/strong&gt; (FK)&lt;br&gt;&lt;strong&gt;fecha_recepcion&lt;/strong&gt; &lt;br&gt;&lt;strong&gt;cantidad&lt;/strong&gt; &lt;br&gt;&lt;/blockquote&gt;" style="ellipse;whiteSpace=wrap;html=1;align=left;" parent="1" vertex="1">
          <mxGeometry x="-130" y="618.13" width="202" height="105" as="geometry" />
        </mxCell>
        <mxCell id="XYxXkfkzVl0odQ3r3NW9-148" value="" style="endArrow=none;html=1;rounded=0;entryX=0.5;entryY=0;entryDx=0;entryDy=0;exitX=0.5;exitY=1;exitDx=0;exitDy=0;" parent="1" source="XYxXkfkzVl0odQ3r3NW9-147" target="XYxXkfkzVl0odQ3r3NW9-69" edge="1">
          <mxGeometry width="50" height="50" relative="1" as="geometry">
            <mxPoint x="-29.339999999999975" y="733.22" as="sourcePoint" />
            <mxPoint x="-29.339999999999975" y="822.22" as="targetPoint" />
          </mxGeometry>
        </mxCell>
        <mxCell id="XYxXkfkzVl0odQ3r3NW9-155" value="&amp;nbsp;&amp;nbsp;&amp;nbsp; " style="text;html=1;align=center;verticalAlign=middle;resizable=0;points=[];autosize=1;strokeColor=none;fillColor=none;" parent="1" vertex="1">
          <mxGeometry x="635" y="128" width="30" height="30" as="geometry" />
        </mxCell>
      </root>
    </mxGraphModel>
  </diagram>
</mxfile>
